<?xml version="1.0" standalone="no"?>
<!DOCTYPE svg PUBLIC "-//W3C//DTD SVG 20010904//EN"
 "http://www.w3.org/TR/2001/REC-SVG-20010904/DTD/svg10.dtd">
<svg version="1.0" xmlns="http://www.w3.org/2000/svg"
 width="512.000000pt" height="512.000000pt" viewBox="0 0 512.000000 512.000000"
 preserveAspectRatio="xMidYMid meet">

<g transform="translate(0.000000,512.000000) scale(0.100000,-0.100000)"
fill="#000000" stroke="none">
<path d="M383 5106 c-181 -44 -334 -202 -372 -384 -16 -75 -16 -4249 0 -4324
39 -187 200 -348 387 -387 75 -16 4249 -16 4324 0 92 19 177 67 249 138 71 72
119 157 138 249 16 75 16 4249 0 4324 -39 187 -200 348 -387 387 -81 17 -4268
14 -4339 -3z m3987 -2390 c47 -9 118 -26 158 -37 l72 -22 0 -233 0 -234 -62
35 c-249 136 -621 154 -768 37 -41 -33 -80 -104 -80 -147 1 -46 33 -107 80
-153 45 -43 114 -83 250 -145 209 -96 332 -158 388 -196 130 -88 225 -208 265
-336 32 -101 31 -299 -1 -400 -73 -232 -250 -371 -553 -436 -87 -19 -137 -23
-309 -23 -250 -1 -410 24 -576 91 l-64 25 0 249 c0 137 1 249 3 249 2 0 28
-18 58 -41 74 -56 217 -123 319 -151 72 -19 109 -23 240 -23 139 0 161 3 213
24 72 28 124 73 148 126 25 53 23 90 -5 150 -45 98 -136 160 -407 276 -176 75
-252 117 -346 191 -153 120 -233 288 -233 488 0 256 131 449 384 565 81 38
160 60 285 80 112 19 422 13 541 -9z m-1400 -231 l0 -205 -320 0 -320 0 0
-915 0 -915 -255 0 -255 0 0 915 0 915 -320 0 -320 0 0 205 0 205 895 0 895 0
0 -205z"/>
</g>
</svg>
